<?xml version="1.0" standalone="no"?>
<!DOCTYPE svg PUBLIC "-//W3C//DTD SVG 20010904//EN"
 "http://www.w3.org/TR/2001/REC-SVG-20010904/DTD/svg10.dtd">
<svg version="1.0" xmlns="http://www.w3.org/2000/svg"
 width="1080.000000pt" height="1080.000000pt" viewBox="0 0 1080.000000 1080.000000"
 preserveAspectRatio="xMidYMid meet">
<metadata>
Created by potrace 1.14, written by Peter Selinger 2001-2017
</metadata>
<g transform="translate(0.000000,1080.000000) scale(0.100000,-0.100000)"
fill="#000000" stroke="none">
<path d="M5520 10187 c-19 -7 -57 -23 -84 -36 -43 -20 -62 -23 -140 -20 -87 4
-91 3 -94 -18 -7 -45 95 -103 181 -103 51 0 81 10 180 60 22 11 47 20 57 20
29 0 73 -44 121 -120 37 -60 48 -70 69 -68 36 4 39 58 7 129 -58 127 -186 194
-297 156z"/>
<path d="M4493 9902 c-16 -10 -75 -139 -85 -187 -19 -94 -20 -109 -8 -163 17
-73 44 -132 92 -204 45 -67 67 -86 150 -126 146 -71 223 -92 332 -92 87 0 122
11 131 40 8 26 -35 87 -74 102 -14 5 -34 14 -43 19 -10 5 -26 9 -36 9 -42 0
-222 71 -242 95 -7 8 -18 15 -24 15 -19 0 -72 63 -100 117 -25 50 -26 60 -26
202 0 144 -1 151 -22 165 -25 18 -28 19 -45 8z"/>
<path d="M6229 9854 c-8 -10 -17 -53 -21 -98 -14 -165 -27 -227 -59 -292 -18
-35 -40 -73 -50 -83 -46 -49 -139 -99 -278 -147 -53 -19 -108 -53 -135 -83
-11 -12 -31 -21 -48 -21 -19 0 -28 -5 -28 -17 0 -9 -1 -14 -2 -12 -2 2 -1 114
2 249 l5 245 50 8 c28 4 71 10 97 13 87 10 154 98 109 143 -21 21 -28 21 -475
21 -400 0 -456 -2 -470 -16 -9 -8 -16 -22 -16 -30 0 -50 90 -114 161 -114 24
0 62 -7 84 -14 l40 -14 -1 -259 c-1 -244 -9 -356 -33 -448 -27 -108 -35 -133
-54 -175 -37 -79 -103 -173 -159 -226 -66 -63 -182 -124 -236 -124 -21 0 -43
-5 -49 -11 -14 -14 -192 1 -238 21 -25 10 -149 58 -190 73 -16 6 -52 21 -80
33 -90 41 -203 74 -251 74 -92 0 -214 -55 -257 -116 -29 -41 -66 -169 -67
-229 0 -43 43 -158 74 -200 35 -45 62 -63 144 -92 98 -35 107 -37 125 -18 26
25 5 51 -52 66 -112 29 -191 125 -191 234 0 62 14 97 57 136 35 34 105 69 135
69 38 0 228 -74 357 -139 69 -35 185 -69 271 -79 75 -9 80 -33 13 -63 -26 -12
-97 -45 -158 -75 -60 -30 -115 -54 -122 -54 -6 0 -48 -18 -92 -40 -44 -22 -85
-40 -90 -40 -13 0 -162 -74 -321 -159 -63 -34 -144 -73 -180 -88 -36 -14 -96
-42 -135 -62 -38 -20 -97 -47 -130 -60 -57 -22 -91 -38 -355 -164 -63 -30
-133 -60 -154 -67 -22 -7 -95 -41 -164 -76 -69 -35 -128 -64 -133 -64 -4 0
-54 -22 -111 -49 -170 -80 -220 -102 -248 -107 l-26 -6 0 141 c0 110 -4 145
-15 156 -11 11 -97 14 -450 18 -388 5 -440 7 -476 23 l-41 18 58 46 c65 49
104 99 139 174 20 43 22 62 19 140 -3 85 -6 95 -39 146 -76 118 -136 173 -242
228 -47 24 -62 26 -157 26 -133 -2 -187 -22 -260 -100 -70 -74 -92 -128 -98
-241 -4 -74 -1 -103 13 -140 24 -63 77 -118 133 -139 42 -16 75 -38 176 -115
l28 -22 -28 -15 c-19 -10 -71 -15 -173 -18 -80 -2 -155 -4 -166 -5 -11 -1 -48
2 -82 6 -50 6 -67 5 -88 -9 l-25 -16 0 -174 c0 -196 0 -195 74 -203 55 -7 56
-9 56 -176 0 -91 4 -138 15 -164 22 -52 22 -634 0 -686 -22 -54 -22 -800 0
-854 13 -31 15 -161 15 -967 -1 -887 -5 -1034 -30 -1112 -10 -29 -17 -33 -71
-43 -106 -21 -99 15 -99 -490 l0 -440 22 -15 c20 -14 516 -16 5054 -16 l5031
0 19 21 c18 20 19 42 18 443 0 315 -3 427 -13 444 -6 12 -50 47 -97 77 -53 35
-88 64 -94 81 -11 29 -6 3509 5 3634 4 46 2 96 -5 131 -9 43 -10 65 -1 92 11
32 15 35 64 41 28 4 57 12 64 18 10 8 13 55 13 178 l0 169 -26 20 c-20 15 -33
18 -57 13 -18 -4 -48 -6 -67 -5 -19 1 -107 4 -195 8 -180 7 -205 10 -205 28 0
12 124 102 206 148 96 55 134 130 134 269 0 76 -4 94 -30 146 -79 159 -251
242 -419 204 -68 -16 -78 -21 -163 -77 -69 -47 -94 -77 -149 -184 -30 -58 -33
-73 -33 -149 0 -141 49 -230 172 -309 28 -18 52 -37 52 -41 0 -18 -66 -32
-162 -36 -57 -3 -255 -6 -441 -8 -279 -2 -340 -5 -348 -17 -21 -32 -30 -97
-27 -190 3 -89 1 -99 -15 -99 -9 0 -25 4 -35 9 -9 5 -35 17 -57 27 -22 9 -94
43 -160 75 -66 31 -176 83 -244 114 -69 32 -181 84 -250 117 -70 33 -148 69
-176 80 -27 11 -72 30 -100 43 -27 13 -79 37 -115 54 -36 16 -112 51 -170 79
-58 27 -116 53 -130 57 -14 4 -61 24 -105 45 -44 20 -101 47 -127 59 -58 27
-100 60 -93 71 3 5 37 26 74 45 85 45 147 109 177 184 29 69 30 115 4 200 -24
82 -65 132 -134 166 -51 25 -61 26 -167 22 -151 -5 -181 -14 -351 -98 -10 -5
-27 -9 -37 -9 -11 0 -22 -4 -25 -9 -19 -31 -332 -32 -401 -1 -11 5 -42 16 -68
25 -98 31 -145 72 -212 182 -53 88 -74 175 -75 306 0 141 4 146 170 176 56 11
144 37 187 57 17 8 36 14 42 14 16 0 118 54 165 87 51 36 130 151 156 227 15
46 20 86 20 172 0 106 -2 115 -34 186 -28 62 -49 88 -71 88 -1 0 -9 -7 -16
-16z m-991 -1396 l-3 -93 -40 -8 c-99 -20 -135 -23 -135 -12 0 6 25 35 56 65
31 30 65 74 76 98 10 23 26 42 34 42 12 0 14 -16 12 -92z m410 -122 c4 -20
-17 -21 -43 -2 -12 8 -16 19 -12 31 7 16 9 16 30 2 12 -8 23 -22 25 -31z
m1294 -63 c46 -49 58 -73 58 -120 -1 -47 -13 -69 -73 -132 -42 -43 -53 -50
-100 -55 -69 -8 -85 -8 -128 0 -23 3 -39 2 -43 -5 -4 -6 -17 -11 -29 -11 -29
0 -108 28 -127 44 -8 8 -40 21 -70 31 -69 22 -250 112 -250 124 0 5 28 12 63
14 34 3 78 8 97 12 58 11 192 57 227 77 73 43 125 56 233 57 l106 1 36 -37z
m-1704 -2817 l2 -2637 -92 3 -93 3 -8 260 c-4 143 -7 298 -7 345 0 47 0 126 0
175 -1 50 -1 163 0 253 2 536 0 1039 -5 1182 -4 114 -3 171 5 186 8 13 10 48
6 95 -3 41 -6 89 -5 107 0 17 1 210 0 427 0 217 0 432 0 478 0 45 0 276 0 512
1 237 0 447 0 468 -1 20 -2 45 -2 55 1 21 -16 171 -25 230 -11 74 -63 80 -79
9 -4 -17 -12 -50 -18 -72 -8 -28 -13 -720 -17 -2375 l-5 -2335 -165 0 -165 0
-6 2225 c-3 1334 -10 2248 -15 2281 -11 66 -27 89 -60 89 -27 0 -34 -10 -46
-64 -5 -23 -14 -59 -21 -81 -8 -30 -13 -617 -17 -2245 l-5 -2205 -150 0 -150
0 -5 2160 c-4 1480 -9 2173 -17 2202 -21 84 -62 96 -100 28 -17 -29 -23 -56
-23 -102 0 -34 -4 -65 -10 -68 -7 -4 -10 -720 -10 -2116 l0 -2109 -155 0 -155
0 -1 48 c0 26 0 94 1 152 1 75 -3 116 -14 141 -13 31 -15 96 -12 450 3 228 4
423 4 434 0 11 -2 155 -4 319 -4 252 -2 306 11 344 21 63 21 283 0 343 -14 37
-15 160 -14 949 1 915 -1 963 -34 1008 -14 18 -25 15 -52 -14 -18 -20 -25 -38
-25 -68 0 -23 -4 -46 -10 -52 -6 -6 -12 -196 -15 -489 -6 -573 -6 -477 0
-2145 4 -851 2 -1342 -4 -1355 -6 -11 -11 -29 -13 -40 -3 -19 -11 -20 -148
-20 l-145 0 -6 1955 c-3 1146 -10 1978 -15 2010 -12 68 -19 80 -49 80 -29 0
-54 -41 -69 -115 -6 -31 -12 -780 -15 -1990 l-6 -1940 -135 0 -135 0 -6 1855
c-3 1051 -10 1882 -15 1916 -10 66 -26 94 -54 94 -27 0 -50 -33 -62 -91 -9
-39 -13 -573 -17 -1914 l-6 -1860 -80 0 -80 0 -6 1820 c-3 1001 -9 1839 -14
1862 -14 82 -79 100 -100 28 -36 -117 -36 -117 -36 -1889 -1 -961 -4 -1766 -6
-1787 l-6 -40 -76 3 c-69 3 -77 5 -88 28 -10 20 -13 415 -13 1922 l0 1897 21
20 c12 11 44 27 71 36 28 9 97 41 154 71 56 30 109 54 116 54 7 0 71 29 142
65 71 36 134 65 141 65 7 0 51 20 98 45 47 25 92 45 99 45 8 0 68 27 133 60
66 33 125 60 131 60 7 0 70 29 140 64 71 35 140 67 154 71 14 4 60 25 102 46
43 22 83 39 89 39 6 0 70 29 142 65 72 36 134 65 138 65 5 0 68 29 141 65 72
36 138 65 145 65 7 0 59 22 115 49 57 27 148 69 203 94 55 25 135 61 178 81
43 20 83 36 89 36 6 0 50 18 99 40 49 22 97 40 107 40 10 0 22 4 28 9 5 5 45
21 89 36 44 15 84 32 90 36 5 5 14 8 20 6 7 -3 11 -830 13 -2641z m417 2584
c3 -5 16 -10 29 -10 12 0 26 -4 32 -9 5 -5 45 -21 89 -36 44 -16 107 -41 139
-57 33 -15 65 -28 71 -28 7 0 47 -17 91 -38 124 -61 239 -112 250 -112 6 0 61
-25 122 -55 62 -31 130 -62 152 -70 21 -7 97 -42 167 -76 198 -96 248 -119
262 -119 7 0 68 -27 137 -60 68 -33 128 -60 132 -60 4 0 38 -16 76 -35 39 -19
74 -35 79 -35 6 0 88 -38 184 -85 96 -47 178 -85 183 -85 12 0 178 -79 490
-234 l245 -121 -2 -305 c-4 -445 -3 -528 2 -2092 5 -1246 3 -1433 -10 -1463
l-14 -36 -78 3 -78 3 -3 1765 c-1 1156 -5 1767 -12 1774 -6 6 -10 34 -10 64 0
65 -24 144 -49 159 -27 17 -57 -8 -66 -54 -5 -21 -10 -863 -12 -1870 l-3
-1833 -23 -5 c-12 -3 -74 -4 -137 -3 l-115 3 -6 1910 c-4 1051 -10 1931 -14
1957 -8 52 -42 93 -69 82 -23 -9 -46 -56 -46 -96 0 -18 -7 -46 -15 -62 -14
-26 -15 -251 -15 -1910 l1 -1881 -143 0 -143 0 -7 1495 c-9 1707 -19 2507 -35
2565 -16 60 -23 74 -43 80 -33 11 -50 -5 -50 -47 0 -22 -5 -48 -10 -59 -7 -13
-10 -660 -10 -2013 0 -1096 -2 -2001 -6 -2010 -5 -14 -27 -16 -159 -16 -116 0
-155 3 -164 13 -8 10 -12 584 -15 2108 -2 1152 -7 2117 -11 2144 -10 72 -53
109 -83 72 -21 -25 -42 -103 -42 -157 0 -31 -5 -61 -10 -66 -11 -11 -7 -1801
5 -1958 4 -58 3 -92 -4 -99 -8 -8 -11 -317 -11 -1034 l0 -1024 -155 3 -155 3
-3 2202 c-2 1746 -5 2205 -14 2214 -7 7 -13 28 -13 45 0 39 -33 69 -60 54 -21
-11 -50 -95 -50 -142 0 -19 -4 -38 -10 -44 -7 -7 -11 -750 -12 -2169 l-3
-2160 -165 0 -165 0 0 990 0 990 50 -3 c149 -9 151 -8 197 23 l43 31 3 83 c3
76 1 86 -20 108 -42 46 -73 56 -131 43 -29 -7 -72 -10 -97 -8 l-45 3 -5 1175
c-4 844 -9 1186 -18 1215 -6 22 -14 52 -18 67 -8 36 -31 55 -51 42 -19 -12
-43 -79 -43 -125 0 -19 -4 -39 -10 -45 -6 -6 -11 -416 -12 -1169 l-3 -1160
-75 -5 c-87 -6 -110 -17 -139 -64 -29 -46 -27 -106 3 -155 28 -44 93 -71 170
-71 l46 0 -2 -982 -3 -983 -145 0 -145 0 -3 2613 c-2 2581 -2 2612 17 2612 11
0 23 -4 26 -10z m-1368 -5516 c433 2 814 7 847 11 79 10 106 -5 106 -57 l0
-38 -1602 2 -1603 3 -3 29 c-2 16 2 32 10 37 7 5 321 9 698 10 377 0 694 4
705 8 11 5 28 4 37 0 10 -5 358 -7 805 -5z m2352 -2 c80 -5 122 -3 142 5 15 6
30 8 34 5 4 -4 421 -9 928 -12 l922 -5 3 -37 3 -38 -1531 0 -1531 0 3 38 3 37
357 5 c196 3 360 9 365 13 4 5 49 6 98 3 50 -4 141 -10 204 -14z"/>
<path d="M6445 9151 c-27 -4 -70 -14 -95 -23 -25 -9 -57 -19 -71 -22 -49 -10
-139 -121 -139 -170 0 -14 -5 -37 -12 -51 -9 -21 -9 -31 0 -46 7 -10 12 -26
12 -35 0 -21 44 -95 74 -123 34 -32 151 -71 214 -71 65 0 115 24 171 82 39 41
41 46 41 104 0 55 -3 64 -35 101 -44 52 -87 69 -109 44 -9 -10 -16 -28 -16
-40 0 -17 -4 -22 -16 -17 -30 11 -64 -21 -64 -59 0 -34 -1 -35 -38 -35 -57 0
-86 35 -80 94 14 119 168 188 363 162 85 -12 94 -15 136 -53 49 -44 69 -81 69
-126 0 -49 36 -96 100 -130 30 -16 63 -38 73 -48 21 -23 31 -24 46 -5 14 16 6
39 -43 116 -19 30 -55 89 -79 130 -95 161 -181 212 -372 223 -44 2 -102 1
-130 -2z m65 -286 c0 -8 -4 -15 -10 -15 -5 0 -10 7 -10 15 0 8 5 15 10 15 6 0
10 -7 10 -15z"/>
<path d="M4113 9131 c-90 -24 -140 -64 -207 -165 -33 -47 -63 -89 -67 -92 -5
-3 -32 -8 -61 -11 -61 -7 -120 -34 -154 -70 -25 -27 -32 -67 -13 -79 10 -6 67
7 165 37 17 5 40 9 52 9 29 0 84 50 123 113 39 63 104 133 141 153 41 22 141
18 191 -7 47 -23 68 -46 98 -102 21 -39 20 -54 -8 -114 -15 -33 -16 -33 -85
-33 -63 0 -71 2 -93 28 -16 17 -24 40 -25 63 0 59 -33 76 -70 37 -16 -17 -20
-35 -20 -90 0 -64 2 -70 36 -107 48 -54 105 -74 192 -69 59 3 75 8 118 39 27
19 64 57 82 83 28 42 32 57 32 112 0 34 -4 66 -10 69 -5 3 -10 15 -10 26 0 26
-75 106 -122 130 -33 17 -197 61 -216 58 -4 -1 -35 -9 -69 -18z"/>
<path d="M6072 8658 c-36 -36 8 -138 69 -162 90 -36 164 -28 157 16 -2 12 -10
24 -18 28 -60 29 -91 49 -132 87 -51 46 -58 49 -76 31z"/>
<path d="M4603 8633 c-53 -36 -113 -63 -143 -63 -50 0 -67 -47 -28 -74 34 -24
88 -19 154 14 65 32 100 76 90 115 -9 34 -30 37 -73 8z"/>
</g>
</svg>
